# xmcd
#
# Track frame offsets:
# 150
# 16988
# 39284
# 58050
# 73387
# 87946
# 107034
# 124362
# 137483
# 150183
# 165160
# 175509
# 193788
# 208803
# 230172
# 247202
# 259920
# 277103
# 294163
# 310730
#
# Disc length: 4390 seconds
#
#
# Revision: 1
# Processed by: cddbd v1.5.1PL2 Copyright (c) Steve Scherf et al.
# Submitted via: FreeRIP 2.944 
#
DISCID=20112414
DTITLE=Chitãozinho and Xororó - As 20 Mais
DYEAR=2000
DGENRE=Sertanejo
TTITLE0=Frete
TTITLE1=Evidências
TTITLE2=Nuvem De Lágrimas
TTITLE3=Alô
TTITLE4=Vem Ni Mim
TTITLE5=Frio Da Solidão
TTITLE6=Ela Não Vai Mais Chorar
TTITLE7=Fio De Cabelo
TTITLE8=Rebola
TTITLE9=Palavras
TTITLE10=60 Dias Apaixonado
TTITLE11=Inseparáveis
TTITLE12=Pé Na Estrada
TTITLE13=Falando As Paredes
TTITLE14=Obras De Um Poeta
TTITLE15=Ela Fez Minha Cabeça
TTITLE16=Menina Linda
TTITLE17=Coração Sertanejo
TTITLE18=Fogão De Lenha
TTITLE19=Coração Vazio
EXTD=by d.aparecido@hotmail.com
EXTT0=
EXTT1=
EXTT2=
EXTT3=
EXTT4=
EXTT5=
EXTT6=
EXTT7=
EXTT8=
EXTT9=
EXTT10=
EXTT11=
EXTT12=
EXTT13=
EXTT14=
EXTT15=
EXTT16=
EXTT17=
EXTT18=
EXTT19=
PLAYORDER=
